<svg width="208" height="40" viewBox="0 0 208 40" fill="none" xmlns="http://www.w3.org/2000/svg">
<circle cx="188" cy="20" r="20" fill="#7C4EE4"/>
<path d="M179.464 14.64L182.264 19.984L185.112 14.64H187.496L183.368 22.032V26H181.176V22L177.064 14.64H179.464ZM197.243 16.576H193.611V26H191.419V16.576H187.787V14.64H197.243V16.576Z" fill="white"/>
<circle cx="132" cy="20" r="20" fill="#7C4EE4"/>
<path d="M123.184 26V14.64H125.392V24.064H131.184V26H123.184ZM134.736 18.704V26H132.528V14.64H134.288L140.16 22.128V14.656H142.368V26H140.528L134.736 18.704Z" fill="white"/>
<circle cx="76" cy="20" r="20" fill="#7C4EE4"/>
<path d="M68.184 26V14.64H70.392V26H68.184ZM77.4821 26.08C76.7461 26.08 76.0475 25.9307 75.3861 25.632C74.7355 25.3333 74.1595 24.9227 73.6581 24.4C73.1675 23.8667 72.7835 23.248 72.5061 22.544C72.2288 21.84 72.0901 21.0773 72.0901 20.256C72.0901 19.4773 72.2288 18.7467 72.5061 18.064C72.7835 17.3707 73.1728 16.7627 73.6741 16.24C74.1755 15.7173 74.7621 15.3067 75.4341 15.008C76.1061 14.7093 76.8368 14.56 77.6261 14.56C78.6928 14.56 79.6048 14.7893 80.3621 15.248C81.1301 15.696 81.7061 16.2933 82.0901 17.04L80.4421 18.256C80.1541 17.6907 79.7488 17.2587 79.2261 16.96C78.7141 16.6613 78.1541 16.512 77.5461 16.512C77.0661 16.512 76.6288 16.6133 76.2341 16.816C75.8395 17.0187 75.4981 17.296 75.2101 17.648C74.9221 18 74.6981 18.4053 74.5381 18.864C74.3888 19.3227 74.3141 19.808 74.3141 20.32C74.3141 20.864 74.3941 21.3653 74.5541 21.824C74.7248 22.2827 74.9595 22.6827 75.2581 23.024C75.5675 23.3653 75.9248 23.6373 76.3301 23.84C76.7355 24.032 77.1835 24.128 77.6741 24.128C78.2501 24.128 78.7995 23.9787 79.3221 23.68C79.8555 23.3813 80.3515 22.944 80.8101 22.368V24.544C79.8608 25.568 78.7515 26.08 77.4821 26.08ZM80.6501 21.776H78.3621V20.16H82.4741V26H80.6501V21.776Z" fill="white"/>
<circle cx="20" cy="20" r="20" fill="#7C4EE4"/>
<path d="M11.184 26V14.64H18.816V16.576H13.392V19.504H17.904V21.296H13.392V26H11.184ZM29.5235 23.072C29.5235 23.712 29.3582 24.2507 29.0275 24.688C28.6968 25.1147 28.2488 25.44 27.6835 25.664C27.1288 25.888 26.5208 26 25.8595 26H20.3715V14.64H26.4515C26.9848 14.64 27.4435 14.784 27.8275 15.072C28.2222 15.3493 28.5208 15.712 28.7235 16.16C28.9368 16.5973 29.0435 17.056 29.0435 17.536C29.0435 18.08 28.9048 18.5973 28.6275 19.088C28.3502 19.5787 27.9448 19.9413 27.4115 20.176C28.0622 20.368 28.5742 20.7147 28.9475 21.216C29.3315 21.7173 29.5235 22.336 29.5235 23.072ZM27.2995 22.656C27.2995 22.368 27.2408 22.112 27.1235 21.888C27.0062 21.6533 26.8462 21.472 26.6435 21.344C26.4515 21.2053 26.2275 21.136 25.9715 21.136H22.5795V24.128H25.8595C26.1262 24.128 26.3662 24.064 26.5795 23.936C26.8035 23.7973 26.9795 23.616 27.1075 23.392C27.2355 23.168 27.2995 22.9227 27.2995 22.656ZM22.5795 16.528V19.392H25.5235C25.7688 19.392 25.9928 19.3333 26.1955 19.216C26.3982 19.0987 26.5582 18.9333 26.6755 18.72C26.8035 18.5067 26.8675 18.2507 26.8675 17.952C26.8675 17.664 26.8088 17.4133 26.6915 17.2C26.5848 16.9867 26.4355 16.8213 26.2435 16.704C26.0622 16.5867 25.8542 16.528 25.6195 16.528H22.5795Z" fill="white"/>
</svg>
